<mxfile host="app.diagrams.net" modified="2023-10-05T10:40:15.157Z" agent="Mozilla/5.0 (Windows NT 10.0; Win64; x64; rv:109.0) Gecko/20100101 Firefox/118.0" etag="vdJmpX4tq2VhlXw9eanS" version="21.8.2" type="github">
  <diagram name="Page-1" id="BHU6JsMCc_5IQ0nTjmzh">
    <mxGraphModel dx="1032" dy="1129" grid="1" gridSize="10" guides="1" tooltips="1" connect="1" arrows="1" fold="1" page="1" pageScale="1" pageWidth="850" pageHeight="1100" math="0" shadow="0">
      <root>
        <mxCell id="0" />
        <mxCell id="1" parent="0" />
        <mxCell id="UZy9sxtAKgCSUV0hnDXQ-9" style="edgeStyle=orthogonalEdgeStyle;rounded=0;orthogonalLoop=1;jettySize=auto;html=1;entryX=0.5;entryY=0;entryDx=0;entryDy=0;" edge="1" parent="1" source="UZy9sxtAKgCSUV0hnDXQ-2" target="UZy9sxtAKgCSUV0hnDXQ-6">
          <mxGeometry relative="1" as="geometry" />
        </mxCell>
        <mxCell id="UZy9sxtAKgCSUV0hnDXQ-10" style="edgeStyle=orthogonalEdgeStyle;rounded=0;orthogonalLoop=1;jettySize=auto;html=1;exitX=0.5;exitY=1;exitDx=0;exitDy=0;entryX=0.5;entryY=0;entryDx=0;entryDy=0;" edge="1" parent="1" source="UZy9sxtAKgCSUV0hnDXQ-2" target="UZy9sxtAKgCSUV0hnDXQ-7">
          <mxGeometry relative="1" as="geometry" />
        </mxCell>
        <mxCell id="UZy9sxtAKgCSUV0hnDXQ-2" value="Load Balancer" style="rounded=0;whiteSpace=wrap;html=1;" vertex="1" parent="1">
          <mxGeometry x="280" y="170" width="210" height="28.2" as="geometry" />
        </mxCell>
        <mxCell id="UZy9sxtAKgCSUV0hnDXQ-5" style="edgeStyle=orthogonalEdgeStyle;rounded=0;orthogonalLoop=1;jettySize=auto;html=1;" edge="1" parent="1" source="UZy9sxtAKgCSUV0hnDXQ-4" target="UZy9sxtAKgCSUV0hnDXQ-2">
          <mxGeometry relative="1" as="geometry" />
        </mxCell>
        <mxCell id="UZy9sxtAKgCSUV0hnDXQ-4" value="User&#39;s Device" style="outlineConnect=0;dashed=0;verticalLabelPosition=bottom;verticalAlign=top;align=center;html=1;shape=mxgraph.aws3.mobile_client;fillColor=#D2D3D3;gradientColor=none;" vertex="1" parent="1">
          <mxGeometry x="90" y="50" width="40.5" height="63" as="geometry" />
        </mxCell>
        <mxCell id="UZy9sxtAKgCSUV0hnDXQ-6" value="Database Server" style="image;html=1;image=img/lib/clip_art/computers/Server_Rack_128x128.png" vertex="1" parent="1">
          <mxGeometry x="270" y="270" width="80" height="80" as="geometry" />
        </mxCell>
        <mxCell id="UZy9sxtAKgCSUV0hnDXQ-7" value="Web Server" style="image;html=1;image=img/lib/clip_art/computers/Server_Tower_128x128.png" vertex="1" parent="1">
          <mxGeometry x="425" y="270" width="80" height="80" as="geometry" />
        </mxCell>
        <mxCell id="UZy9sxtAKgCSUV0hnDXQ-8" value="Backup" style="image;html=1;image=img/lib/clip_art/networking/Cloud_Rack_128x128.png" vertex="1" parent="1">
          <mxGeometry x="35.25" y="230" width="150" height="160" as="geometry" />
        </mxCell>
        <mxCell id="UZy9sxtAKgCSUV0hnDXQ-11" value="" style="endArrow=none;dashed=1;html=1;dashPattern=1 3;strokeWidth=2;rounded=0;entryX=0;entryY=0.5;entryDx=0;entryDy=0;exitX=1;exitY=0.5;exitDx=0;exitDy=0;fontStyle=1" edge="1" parent="1" source="UZy9sxtAKgCSUV0hnDXQ-8" target="UZy9sxtAKgCSUV0hnDXQ-6">
          <mxGeometry width="50" height="50" relative="1" as="geometry">
            <mxPoint x="400" y="510" as="sourcePoint" />
            <mxPoint x="450" y="460" as="targetPoint" />
          </mxGeometry>
        </mxCell>
      </root>
    </mxGraphModel>
  </diagram>
</mxfile>
